<svg id="Capa_1" data-name="Capa 1" xmlns="http://www.w3.org/2000/svg" viewBox="0 0 577.65 545.82"><defs><style>.cls-1{fill:#fff;}</style></defs><path class="cls-1" d="M437.51,570.05c-4.2,0-6.71-4.45-6.71-11.89V37.21c0-7.44,2.51-11.89,6.71-11.89,2.74,0,6,1.8,9.4,5.22L697.44,281.07a23.55,23.55,0,0,1,0,33.23L446.91,564.83c-3.41,3.41-6.66,5.22-9.4,5.22Zm66.88-380c-4.83,0-7.71,4.82-7.71,12.89V392c0,8.07,2.88,12.89,7.71,12.89,3,0,6.51-1.9,10.11-5.51l84.59-84.59a24.56,24.56,0,0,0,0-34.65L514.5,195.55C510.9,191.94,507.4,190,504.39,190Z" transform="translate(-127.15 -24.73)"/><path class="cls-1" d="M437.51,25.82c2.57,0,5.78,1.8,9.05,5.07L697.09,281.42a23,23,0,0,1,0,32.53L446.56,564.48c-3.27,3.27-6.48,5.07-9.05,5.07-3.89,0-6.21-4.26-6.21-11.39V37.21c0-7.13,2.32-11.39,6.21-11.39m66.88,379.57c3.15,0,6.76-1.95,10.46-5.66l84.6-84.59a25.07,25.07,0,0,0,0-35.35l-84.6-84.6c-3.7-3.7-7.31-5.65-10.46-5.65-5.14,0-8.21,5-8.21,13.39V392c0,8.38,3.07,13.39,8.21,13.39M437.51,24.82c-4.36,0-7.21,4.32-7.21,12.39V558.16c0,8.07,2.85,12.39,7.21,12.39,2.76,0,6.13-1.74,9.76-5.37L697.8,314.66a24.09,24.09,0,0,0,0-34L447.27,30.19c-3.63-3.63-7-5.37-9.76-5.37Zm66.88,379.57c-4.36,0-7.21-4.32-7.21-12.39V202.93c0-8.07,2.86-12.39,7.21-12.39,2.77,0,6.13,1.74,9.76,5.36l84.59,84.59a24.08,24.08,0,0,1,0,33.94L514.15,399c-3.63,3.62-7,5.36-9.76,5.36Z" transform="translate(-127.15 -24.73)"/><path class="cls-1" d="M404.38,570c-2.74,0-6-1.8-9.4-5.21L144.45,314.21c-8-8-14-14-16.12-16.15l22.84,0h50.44c13.12,0,31.34,7.55,40.62,16.82l84.51,84.52c3.61,3.61,7.11,5.51,10.11,5.51,4.83,0,7.72-4.82,7.72-12.89V202.93c0-8.07-2.89-12.89-7.72-12.89-3,0-6.5,1.9-10.11,5.51L300.79,221.5c-9.28,9.28-27.5,16.83-40.62,16.83H209.88c-6.16,0-10.25-1.66-11.5-4.68s.47-7.08,4.83-11.44L395,30.44c3.41-3.41,6.66-5.21,9.4-5.21,4.2,0,6.71,4.44,6.71,11.89V558.06C411.09,565.51,408.58,570,404.38,570Z" transform="translate(-127.15 -24.73)"/><path class="cls-1" d="M404.38,25.73c3.89,0,6.21,4.26,6.21,11.39V558.06c0,7.14-2.32,11.39-6.21,11.39-2.57,0-5.78-1.8-9.05-5.07L144.8,313.85c-7.27-7.26-12.7-12.71-15.27-15.3h72.08c13,0,31.07,7.48,40.26,16.68l84.52,84.51c3.7,3.71,7.32,5.66,10.46,5.66,5.15,0,8.22-5,8.22-13.39V202.93c0-8.39-3.07-13.39-8.22-13.39-3.14,0-6.76,2-10.46,5.65l-26,26c-9.19,9.2-27.26,16.68-40.26,16.68H209.88c-5.86,0-9.89-1.59-11-4.37s.57-6.75,4.72-10.89L395.33,30.8c3.27-3.27,6.48-5.07,9.05-5.07m0-1c-2.77,0-6.13,1.74-9.76,5.36L202.85,221.86c-9.33,9.33-6.17,17,7,17h50.29c13.2,0,31.63-7.64,41-17l26-26c3.62-3.62,7-5.36,9.75-5.36,4.36,0,7.22,4.31,7.22,12.39V392c0,8.07-2.86,12.39-7.22,12.39-2.76,0-6.13-1.74-9.75-5.36l-84.52-84.52c-9.33-9.33-27.77-17-41-17H151.17c-13.2,0-24,0-24,0s7.61,7.67,16.94,17L394.62,565.09c3.63,3.62,7,5.36,9.76,5.36,4.36,0,7.21-4.31,7.21-12.39V37.12c0-8.07-2.85-12.39-7.21-12.39Z" transform="translate(-127.15 -24.73)"/></svg>